<svg width="40" height="40" viewBox="0 0 40 40" fill="none" xmlns="http://www.w3.org/2000/svg">
<g id="material-symbols:outgoing-mail">
<path id="Vector" d="M17.334 18.3333L28.334 11.9167V8.33333H27.9173L17.334 14.4583L7.04232 8.33333H6.66732V12L17.334 18.3333ZM6.45898 28.3333C5.59787 28.3333 4.86176 28.0278 4.25065 27.4167C3.63954 26.8056 3.33398 26.0694 3.33398 25.2083V8.125C3.33398 7.26389 3.63954 6.52778 4.25065 5.91667C4.86176 5.30556 5.59787 5 6.45898 5H28.5423C29.4034 5 30.1395 5.30556 30.7507 5.91667C31.3618 6.52778 31.6673 7.26389 31.6673 8.125V16.8333C31.3895 16.7778 31.1118 16.7361 30.834 16.7083C30.5562 16.6806 30.2784 16.6667 30.0007 16.6667C27.2784 16.6667 24.9312 17.6461 22.959 19.605C20.9868 21.5639 20.0007 23.9178 20.0007 26.6667C20.0007 26.9444 20.0145 27.2222 20.0423 27.5C20.0701 27.7778 20.1118 28.0556 20.1673 28.3333H6.45898Z" fill="#31465A"/>
<path id="Vector_2" d="M27.6673 31L30.0007 33.3333L36.6673 26.6667L30.0007 20L27.6673 22.3333L30.2923 25H23.334V28.3333H30.2923L27.6673 31Z" fill="#31465A"/>
</g>
</svg>
