<svg width="20" height="20" viewBox="0 0 20 20" fill="none" xmlns="http://www.w3.org/2000/svg">
<path fill-rule="evenodd" clip-rule="evenodd" d="M1.66602 4.16699C1.66602 3.50395 1.92941 2.86807 2.39825 2.39923C2.86709 1.93038 3.50297 1.66699 4.16602 1.66699H15.8327C16.4957 1.66699 17.1316 1.93038 17.6005 2.39923C18.0693 2.86807 18.3327 3.50395 18.3327 4.16699V15.8337C18.3327 16.4967 18.0693 17.1326 17.6005 17.6014C17.1316 18.0703 16.4957 18.3337 15.8327 18.3337H4.16602C3.50297 18.3337 2.86709 18.0703 2.39825 17.6014C1.92941 17.1326 1.66602 16.4967 1.66602 15.8337V4.16699Z" fill="#31465A"/>
<path d="M5.83398 5C5.83398 7.76167 7.69982 10 10.0007 10C12.3015 10 14.1673 7.76167 14.1673 5H12.5007C12.5007 7.13833 11.109 8.33333 10.0007 8.33333C8.89232 8.33333 7.50065 7.13833 7.50065 5H5.83398Z" fill="white"/>
</svg>
