<svg width="20" height="21" viewBox="0 0 20 21" fill="none" xmlns="http://www.w3.org/2000/svg">
<g id="mdi:instagram">
<path id="Vector" d="M6.49935 2.16699H13.4993C16.166 2.16699 18.3327 4.33366 18.3327 7.00033V14.0003C18.3327 15.2822 17.8235 16.5116 16.917 17.418C16.0106 18.3244 14.7812 18.8337 13.4993 18.8337H6.49935C3.83268 18.8337 1.66602 16.667 1.66602 14.0003V7.00033C1.66602 5.71845 2.17524 4.48907 3.08167 3.58264C3.98809 2.67622 5.21747 2.16699 6.49935 2.16699ZM6.33268 3.83366C5.53703 3.83366 4.77397 4.14973 4.21136 4.71234C3.64875 5.27495 3.33268 6.03801 3.33268 6.83366V14.167C3.33268 15.8253 4.67435 17.167 6.33268 17.167H13.666C14.4617 17.167 15.2247 16.8509 15.7873 16.2883C16.3499 15.7257 16.666 14.9626 16.666 14.167V6.83366C16.666 5.17533 15.3243 3.83366 13.666 3.83366H6.33268ZM14.3743 5.08366C14.6506 5.08366 14.9156 5.19341 15.1109 5.38876C15.3063 5.58411 15.416 5.84906 15.416 6.12533C15.416 6.40159 15.3063 6.66654 15.1109 6.8619C14.9156 7.05725 14.6506 7.16699 14.3743 7.16699C14.0981 7.16699 13.8331 7.05725 13.6378 6.8619C13.4424 6.66654 13.3327 6.40159 13.3327 6.12533C13.3327 5.84906 13.4424 5.58411 13.6378 5.38876C13.8331 5.19341 14.0981 5.08366 14.3743 5.08366ZM9.99935 6.33366C11.1044 6.33366 12.1642 6.77265 12.9456 7.55405C13.727 8.33545 14.166 9.39526 14.166 10.5003C14.166 11.6054 13.727 12.6652 12.9456 13.4466C12.1642 14.228 11.1044 14.667 9.99935 14.667C8.89428 14.667 7.83447 14.228 7.05307 13.4466C6.27167 12.6652 5.83268 11.6054 5.83268 10.5003C5.83268 9.39526 6.27167 8.33545 7.05307 7.55405C7.83447 6.77265 8.89428 6.33366 9.99935 6.33366ZM9.99935 8.00033C9.33631 8.00033 8.70042 8.26372 8.23158 8.73256C7.76274 9.2014 7.49935 9.83728 7.49935 10.5003C7.49935 11.1634 7.76274 11.7993 8.23158 12.2681C8.70042 12.7369 9.33631 13.0003 9.99935 13.0003C10.6624 13.0003 11.2983 12.7369 11.7671 12.2681C12.236 11.7993 12.4993 11.1634 12.4993 10.5003C12.4993 9.83728 12.236 9.2014 11.7671 8.73256C11.2983 8.26372 10.6624 8.00033 9.99935 8.00033Z" fill="#31465A"/>
</g>
</svg>
