<svg width="20" height="21" viewBox="0 0 20 21" fill="none" xmlns="http://www.w3.org/2000/svg">
<g id="ic:baseline-telegram">
<path id="Vector" d="M9.99935 2.16699C5.39935 2.16699 1.66602 5.90033 1.66602 10.5003C1.66602 15.1003 5.39935 18.8337 9.99935 18.8337C14.5993 18.8337 18.3327 15.1003 18.3327 10.5003C18.3327 5.90033 14.5993 2.16699 9.99935 2.16699ZM13.866 7.83366C13.741 9.15033 13.1993 12.3503 12.9243 13.8253C12.8077 14.4503 12.5743 14.6587 12.3577 14.6837C11.8743 14.7253 11.5077 14.367 11.041 14.0587C10.3077 13.5753 9.89102 13.2753 9.18268 12.8087C8.35768 12.267 8.89102 11.967 9.36602 11.4837C9.49102 11.3587 11.6243 9.41699 11.666 9.24199C11.6718 9.21549 11.671 9.18797 11.6638 9.16183C11.6565 9.13569 11.643 9.11172 11.6243 9.09199C11.5743 9.05033 11.5077 9.06699 11.4493 9.07533C11.3743 9.09199 10.2077 9.86699 7.93268 11.4003C7.59935 11.6253 7.29935 11.742 7.03268 11.7337C6.73268 11.7253 6.16602 11.567 5.74102 11.4253C5.21602 11.2587 4.80768 11.167 4.84102 10.8753C4.85768 10.7253 5.06602 10.5753 5.45768 10.417C7.89102 9.35866 9.50768 8.65866 10.316 8.32533C12.6327 7.35866 13.1077 7.19199 13.4243 7.19199C13.491 7.19199 13.6493 7.20866 13.7493 7.29199C13.8327 7.35866 13.8577 7.45033 13.866 7.51699C13.8577 7.56699 13.8743 7.71699 13.866 7.83366Z" fill="#31465A"/>
</g>
</svg>
