<svg width="20" height="21" viewBox="0 0 20 21" fill="none" xmlns="http://www.w3.org/2000/svg">
<g id="uil:vk">
<path id="Vector" d="M12.5602 2.16699H7.44685C2.77685 2.16699 1.66602 3.27783 1.66602 7.93949V13.0528C1.66602 17.722 2.76852 18.8337 7.43852 18.8337H12.5518C17.221 18.8337 18.3327 17.7312 18.3327 13.0612V7.94783C18.3327 3.27783 17.2302 2.16699 12.5602 2.16699ZM15.121 14.0587H13.9052C13.4452 14.0587 13.3068 13.6862 12.4818 12.8612C11.7618 12.167 11.4577 12.0803 11.2752 12.0803C11.0235 12.0803 10.9543 12.1495 10.9543 12.497V13.5903C10.9543 13.8862 10.8585 14.0595 10.086 14.0595C9.3363 14.0091 8.60929 13.7813 7.96485 13.3949C7.32041 13.0085 6.77699 12.4746 6.37935 11.837C5.43532 10.662 4.77847 9.28294 4.46102 7.80949C4.46102 7.62699 4.53018 7.46199 4.87768 7.46199H6.09268C6.40518 7.46199 6.51768 7.60116 6.64018 7.92199C7.23018 9.65866 8.23685 11.1687 8.64518 11.1687C8.80185 11.1687 8.87018 11.0995 8.87018 10.7087V8.92033C8.81852 8.10449 8.38518 8.03533 8.38518 7.74032C8.39075 7.66252 8.42641 7.58994 8.48459 7.53797C8.54277 7.48601 8.61891 7.45876 8.69685 7.46199H10.6068C10.8677 7.46199 10.9543 7.59199 10.9543 7.90449V10.3178C10.9543 10.5787 11.0668 10.6653 11.1452 10.6653C11.3018 10.6653 11.4227 10.5787 11.7093 10.292C12.3251 9.54112 12.8281 8.70456 13.2027 7.80866C13.241 7.70105 13.3134 7.60891 13.409 7.54632C13.5045 7.48373 13.6179 7.45411 13.7318 7.46199H14.9477C15.3118 7.46199 15.3893 7.64449 15.3118 7.90449C14.8698 8.89485 14.3227 9.83495 13.6802 10.7087C13.5493 10.9087 13.4968 11.0128 13.6802 11.247C13.801 11.4295 14.2268 11.7853 14.5135 12.1237C14.9301 12.5392 15.276 13.02 15.5377 13.547C15.6418 13.8853 15.4677 14.0587 15.121 14.0587Z" fill="#31465A"/>
</g>
</svg>
